<svg width="145" height="100" viewBox="0 0 145 100" fill="none" xmlns="http://www.w3.org/2000/svg"><path fill-rule="evenodd" clip-rule="evenodd" d="M137.698 32.663a18.995 18.995 0 00-.424-2.702c-.657-2.803-2.028-5.098-3.585-7.461-1.601-2.432-2.752-5.067-4.649-7.306-3.518-4.148-8.336-6.656-13.473-8.12-.942-.27-1.886-.552-2.832-.84a57.46 57.46 0 012.106.238c2.607.35 4.727.588 7.329.512 2.349-.069 4.683.245 6.885 1.097 4.199 1.624 9.494 6.37 9.809 11.172.279 4.269-.057 9.035-1.166 13.41zM121.827 62.85c-3.848 4.852-7.452 9.811-12.387 13.614-4.737 3.653-10.05 5.757-15.379 8.297-11.938 5.69-24.629 7.154-37.554 8.94-3.104.43-6.11-.041-9.22-.346-.358-.035-.712-.066-1.067-.1 4.91-.575 9.861-1.566 14.833-2.422 14.075-2.42 27.094-7.873 39.18-15.558 5.659-3.599 11.695-6.826 16.914-11.078 3.199-2.605 6.295-5.523 9.282-8.486-1.315 2.48-2.8 4.869-4.602 7.14zM11.274 73.207c-1.437-2.48-3.387-4.316-4.313-7.152-1.995-6.1-.066-11.618 3.33-16.682 3.707-5.528 7.09-11.114 11.971-15.676A70.292 70.292 0 0136.04 23.634a256.268 256.268 0 0115.254-7.842c5.4-2.544 11.105-3.474 16.664-5.418a61.249 61.249 0 0113.88-3.102c-.624.288-1.247.576-1.867.88l-9.835 4.828C58.657 17.412 48.62 24.218 38.942 31.887c-4.952 3.923-9.229 8.772-13.41 13.498-3.729 4.21-8.24 10.12-9.516 15.752-.659 2.905-.013 6.508.042 9.495.065 3.54.945 6.124 2.614 9.27a46.27 46.27 0 001.148 2.031c-1.778-.727-3.42-1.488-4.904-2.933-1.76-1.71-2.452-3.737-3.642-5.793zm9.841-11.136c.089-5.983 4.353-11.741 8.355-15.944.41-.431.817-.867 1.222-1.304a141.081 141.081 0 00-1.77 3.125c-3.2 5.769-5.602 12-7.022 18.454a66.834 66.834 0 00-.583 3.024c-.326-2.427-.237-4.976-.202-7.355zM131.098 45.12c-.143.37-.288.733-.431 1.099a42.817 42.817 0 01-4.388 4.741c-4.231 3.919-8.121 8.284-12.804 11.687-4.527 3.289-9.561 6.06-14.292 9.06-5.207 3.302-10.724 6.137-16.399 8.525-5.814 2.448-11.633 4.224-17.833 5.29-6.725 1.155-13.603 2.841-20.416 3.273-4.074.26-8.123-.128-12.023-1.19-2.419-2.296-4.549-5.04-6.386-7.586-.227-.316-.443-.647-.664-.972.036-10.268 2.147-20.344 6.905-29.527 1.27-2.451 2.64-4.976 4.307-7.177 2.19-2.892 5.267-5.19 7.959-7.608 4.523-4.06 9.039-9.323 14.454-12.082 2.725-1.39 5.48-2.85 8.266-4.305a91.964 91.964 0 014.055-1.505c.906-.311 1.987-1.023 2.658-1.917 6.396-3.145 12.964-5.933 19.733-7.49 4.606.717 9.042 2.104 13.66 3.412 4.976 1.41 9.954 2.603 14.058 5.964 3.71 3.04 5.716 7.28 8.294 11.203 3.395 5.165 3.471 11.447 1.287 17.105zm4.731-40.513c-4.81-3.001-9.254-2.199-14.567-2.717-7.197-.701-13.913-1.443-21.149-.29a63.091 63.091 0 00-3.103.581 36.26 36.26 0 00-3.34-.306A65.097 65.097 0 0073.021 4.35C66.46 6.233 59.704 7.855 53.41 10.58c-2.935 1.268-5.605 2.904-8.411 4.412-3.219 1.73-6.615 3.048-9.79 4.886a84.098 84.098 0 00-15.303 11.356c-5.53 5.168-9.348 11.348-13.55 17.612C2.84 54.09.462 59.317 1.106 65.844c.552 5.568 4.061 10.303 6.983 14.861 3.123 4.873 8.36 6.334 13.185 8.925a33.284 33.284 0 006.965 2.782 31.48 31.48 0 001.733 1.47c5.545 4.35 11.618 4.308 18.347 4.964 7.383.72 15.803-1.252 23.12-2.52 6.824-1.182 13.465-3.253 19.818-6.023 5.867-2.56 11.844-5.088 17.139-8.746 5.635-3.891 9.967-8.747 14.203-14.088 2.217-2.794 4.928-5.563 6.816-8.592 1.896-3.044 3.033-6.771 4.436-10.075.299-.705.595-1.41.884-2.114a52.314 52.314 0 005.763-9.43c1.159-2.454 2.397-5.033 2.75-7.73.52-3.985.493-8.136.737-12.149.313-5.175-3.907-10.124-8.155-12.772z" fill="#FFCD1F"/><path d="M137.274 29.961l.973-.227v-.001l-.973.228zm-3.585-7.461l-.835.55.835-.55zm-4.649-7.306l.763-.646-.763.646zm-13.473-8.12l-.275.96.275-.96zm-2.832-.84l.098-.996-.39 1.952.292-.957zm2.106.238l-.134.991h.001l.133-.99zm7.329.512l-.029-1h-.001l.03 1zm6.885 1.097l-.361.932.361-.932zm9.809 11.172l.998-.066-.998.066zM109.44 76.464l-.611-.792.611.792zm-15.379 8.297l-.43-.903.43.903zM56.507 93.7l-.137-.99.137.99zm-9.22-.346l.097-.995-.098.995zm-1.067-.1l-.117-.993.023 1.989.094-.996zm14.833-2.422l-.17-.985.17.985zm39.18-15.558l-.537-.844.537.844zm16.914-11.078l.632.775-.632-.775zm9.282-8.486l.884.468L125.725 55l.704.71zM6.961 66.055l.95-.31-.95.31zm3.33-16.682l-.83-.557.83.557zm11.971-15.676l.683.73-.683-.73zM36.04 23.634l.487.874-.487-.874zm15.254-7.842l.426.905-.426-.905zm16.664-5.418l-.33-.944.33.944zm13.88-3.102l.419.908-.522-1.903.103.995zm-1.867.88l-.44-.899.44.898zm-9.835 4.828l.36.932.041-.015.04-.02-.44-.897zM38.942 31.887l.62.783h.001l-.621-.784zm-13.41 13.498l.748.662-.749-.662zm-9.516 15.752l-.976-.22.976.22zm.042 9.495l-1 .018 1-.018zm2.614 9.27l-.884.469.884-.469zm1.148 2.031l-.378.926 2.773 1.133-1.536-2.571-.858.512zM14.916 79l.697-.716-.697.716zM29.47 46.127l-.724-.69.724.69zm1.222-1.304l.862.507-1.595-1.187.733.68zm-1.77 3.125l.874.485-.875-.485zM21.9 66.402l-.976-.215.976.215zm-.583 3.024l-.991.133 1.976.037-.985-.17zm109.35-23.207l.782.623.094-.118.055-.14-.931-.365zm-4.388 4.741l.68.734-.68-.734zm-12.804 11.687l.588.81v-.001l-.588-.809zm-14.292 9.06l.536.845-.536-.845zm-16.399 8.525l-.388-.921.388.921zm-17.833 5.29l.169.985-.17-.985zm-20.416 3.273l-.064-.998.064.998zm-12.023-1.19l-.689.725.183.173.243.066.263-.965zm-6.386-7.586l-.811.584v.001l.811-.585zm-.664-.972l-1-.003-.001.31.174.256.827-.563zm6.905-29.527l.887.46-.887-.46zm4.307-7.177l.797.604-.797-.604zm7.959-7.608l-.668-.744.668.744zm14.454-12.082l.454.891-.454-.891zm8.266-4.305l-.37-.929-.048.019-.045.024.463.886zm4.055-1.505l-.325-.946.325.946zm2.658-1.917l-.441-.897-.215.106-.143.19.8.601zM93.8 7.436l.154-.988-.19-.03-.188.044.224.975zm13.66 3.412l.273-.962-.273.962zm14.058 5.964l.633-.773-.633.773zm8.294 11.203l-.835.549.835-.55zm-8.55-26.125l.097-.996-.097.996zm-21.149-.29l.157.988h.001l-.158-.988zm-3.103.581l-.134.991.171.023.169-.035-.206-.979zm-3.34-.306l-.042 1h.001l.041-1zM73.021 4.35l.276.961-.276-.96zM53.41 10.58l.397.917-.397-.918zm-8.411 4.412l-.474-.88.474.88zm-9.79 4.886l.5.866-.5-.866zM19.905 31.234l.683.73-.683-.73zM6.355 48.846l-.83-.557.83.557zm-5.25 16.998l-.995.098.996-.098zm6.983 14.861l.842-.54-.842.54zm13.185 8.925l.473-.881-.473.88zm6.965 2.782l.672-.74-.177-.161-.23-.063-.265.964zm1.733 1.47l.617-.787-.617.786zm18.347 4.964l-.097.995.097-.995zm23.12-2.52l-.17-.985.17.985zm19.818-6.023l.4.916-.4-.916zm17.139-8.746l-.568-.823.568.823zm14.203-14.088l-.784-.621.784.621zm6.816-8.592l.848.53-.848-.53zm4.436-10.075l.92.39-.92-.39zm.884-2.114l-.794-.608-.081.106-.05.123.925.379zm5.763-9.43l-.904-.428.904.427zm2.75-7.73l.991.13-.991-.13zm.737-12.149l.998.061-.998-.06zm-5.289 15.198a20.045 20.045 0 00-.448-2.843l-1.947.454a18.1 18.1 0 01.402 2.561l1.993-.172zm-.448-2.844c-.699-2.987-2.157-5.407-3.723-7.783l-1.67 1.1c1.548 2.35 2.833 4.52 3.446 7.139l1.947-.456zm-3.723-7.783c-.78-1.186-1.439-2.402-2.185-3.68-.732-1.255-1.53-2.535-2.536-3.722l-1.526 1.293c.891 1.05 1.618 2.208 2.335 3.438.705 1.207 1.422 2.525 2.242 3.77l1.67-1.099zm-4.721-7.402c-3.685-4.345-8.701-6.936-13.962-8.436l-.549 1.923c5.014 1.43 9.634 3.854 12.985 7.806l1.526-1.293zm-13.962-8.436c-.933-.267-1.871-.547-2.813-.835l-.585 1.913c.95.29 1.9.574 2.849.845l.549-1.923zm-3.203 1.117a56.84 56.84 0 012.069.234l.268-1.982a58.694 58.694 0 00-2.142-.243l-.195 1.99zm2.07.235c2.619.35 4.805.598 7.491.52l-.059-2c-2.517.074-4.57-.155-7.166-.503l-.266 1.983zm7.491.52c2.242-.066 4.439.234 6.495 1.03l.722-1.866c-2.349-.908-4.819-1.235-7.275-1.164l.058 2zm6.495 1.03c1.948.753 4.2 2.257 5.996 4.15 1.808 1.904 3.04 4.08 3.176 6.154l1.996-.13c-.179-2.73-1.752-5.326-3.721-7.401-1.98-2.087-4.475-3.768-6.725-4.639l-.722 1.865zm9.172 10.304c.273 4.177-.057 8.837-1.137 13.1l1.939.491c1.137-4.488 1.479-9.36 1.194-13.722l-1.996.131zm-16.822 42.91c-3.889 4.903-7.402 9.735-12.215 13.444l1.221 1.585c5.057-3.898 8.753-8.984 12.561-13.785l-1.567-1.243zm-12.215 13.444c-4.627 3.568-9.79 5.608-15.198 8.186l.86 1.805c5.249-2.501 10.712-4.67 15.56-8.407l-1.222-1.584zm-15.198 8.186c-11.77 5.61-24.288 7.06-37.261 8.853l.274 1.98c12.879-1.78 25.74-3.256 37.847-9.028l-.86-1.805zM56.37 92.711c-2.953.408-5.795-.039-8.986-.35l-.195 1.99c3.03.296 6.2.791 9.455.34l-.274-1.98zm-8.986-.35c-.36-.036-.722-.069-1.07-.101l-.188 1.99c.361.035.708.066 1.063.1l.195-1.99zm-1.048 1.887c4.946-.579 9.951-1.58 14.886-2.43l-.339-1.97c-5.008.861-9.905 1.843-14.78 2.414l.233 1.986zm14.886-2.429c14.225-2.445 27.367-7.955 39.547-15.7l-1.073-1.688c-11.99 7.625-24.886 13.023-38.813 15.417l.34 1.971zm39.547-15.7c5.573-3.544 11.73-6.846 17.01-11.147l-1.263-1.55c-5.16 4.203-11.073 7.355-16.82 11.009l1.073 1.688zm17.01-11.147c3.234-2.634 6.357-5.577 9.355-8.551L125.725 55c-2.976 2.953-6.047 5.845-9.209 8.42l1.263 1.551zm7.767-9.73c-1.294 2.44-2.747 4.774-4.502 6.987l1.567 1.243c1.847-2.33 3.365-4.773 4.702-7.293l-1.767-.937zM12.139 72.706c-.746-1.288-1.652-2.45-2.393-3.513-.763-1.095-1.417-2.168-1.835-3.448l-1.9.62c.507 1.557 1.292 2.82 2.095 3.971.825 1.184 1.612 2.18 2.303 3.373l1.73-1.003zm-4.228-6.962c-1.86-5.686-.1-10.877 3.21-15.814l-1.66-1.114c-3.481 5.191-5.58 11.037-3.45 17.55l1.9-.621zm3.21-15.814c3.745-5.584 7.05-11.04 11.824-15.503l-1.366-1.46c-4.987 4.66-8.449 10.377-12.118 15.849l1.66 1.114zm11.824-15.503a69.29 69.29 0 0113.58-9.92l-.972-1.747a71.29 71.29 0 00-13.974 10.206l1.366 1.461zm13.58-9.92a255.315 255.315 0 0115.194-7.81l-.853-1.81a257.37 257.37 0 00-15.313 7.873l.973 1.748zm15.194-7.81c2.624-1.236 5.336-2.087 8.12-2.877 2.762-.784 5.63-1.517 8.448-2.502l-.66-1.888c-2.742.96-5.505 1.663-8.335 2.466-2.808.797-5.648 1.683-8.426 2.991l.853 1.81zm16.568-5.379A60.252 60.252 0 0181.94 8.267l-.206-1.99A62.248 62.248 0 0067.627 9.43l.66 1.888zm13.131-4.954c-.623.287-1.256.58-1.888.89l.88 1.795a90.204 90.204 0 011.846-.869l-.838-1.816zm-1.888.89l-9.835 4.828.88 1.795 9.836-4.828-.881-1.795zm-9.755 4.793C58.16 16.532 48.032 23.408 38.32 31.103l1.242 1.567c9.645-7.642 19.59-14.378 30.932-18.758l-.72-1.865zM38.32 31.103c-5.034 3.987-9.368 8.907-13.539 13.619l1.498 1.325c4.194-4.738 8.412-9.518 13.283-13.377l-1.242-1.567zM24.783 44.722c-3.73 4.212-8.404 10.29-9.743 16.194l1.95.443c1.216-5.36 5.563-11.103 9.29-15.312l-1.498-1.325zM15.04 60.916c-.36 1.592-.357 3.333-.27 4.99.091 1.727.26 3.258.288 4.744l2-.037c-.028-1.5-.209-3.264-.29-4.812-.085-1.617-.075-3.13.223-4.443l-1.95-.442zm.018 9.734c.069 3.74 1.01 6.48 2.73 9.72l1.767-.936c-1.618-3.051-2.436-5.48-2.497-8.82l-2 .036zm2.73 9.721c.367.69.76 1.383 1.174 2.075l1.717-1.025a45.858 45.858 0 01-1.124-1.988l-1.766.938zm2.41.637c-1.756-.718-3.246-1.421-4.585-2.724l-1.395 1.433c1.63 1.586 3.424 2.406 5.224 3.142l.757-1.851zm-4.585-2.725c-.782-.76-1.34-1.601-1.857-2.535-.261-.47-.505-.952-.769-1.466a35.123 35.123 0 00-.848-1.576l-1.73 1.003c.283.49.54.983.799 1.487.256.498.518 1.016.799 1.522.566 1.021 1.234 2.049 2.212 3l1.394-1.435zm6.502-16.197c.083-5.568 4.09-11.08 8.08-15.27l-1.449-1.379c-4.015 4.217-8.536 10.222-8.63 16.619l2 .03zm8.08-15.27c.414-.435.824-.875 1.23-1.313l-1.466-1.36c-.405.436-.807.868-1.213 1.294l1.448 1.38zm-.365-2.5a142.208 142.208 0 00-1.783 3.147l1.749.97c.565-1.02 1.148-2.066 1.758-3.103l-1.724-1.014zm-1.783 3.147c-3.244 5.85-5.682 12.171-7.123 18.724l1.953.43c1.398-6.356 3.765-12.496 6.919-18.184l-1.75-.97zm-7.123 18.724a67.735 67.735 0 00-.593 3.07l1.971.339c.172-1 .358-1.994.575-2.98l-1.953-.429zm1.384 3.106c-.313-2.335-.229-4.793-.193-7.207l-2-.03c-.034 2.344-.127 4.984.21 7.503l1.983-.266zM130.166 44.76c-.143.368-.283.72-.43 1.095l1.862.73c.14-.358.29-.733.433-1.104l-1.865-.721zm-.281.837a41.914 41.914 0 01-4.285 4.63l1.359 1.468a44 44 0 004.49-4.852l-1.564-1.246zm-4.285 4.63c-4.329 4.01-8.091 8.253-12.713 11.612l1.176 1.618c4.744-3.448 8.762-7.934 12.896-11.762l-1.359-1.468zm-12.713 11.612c-4.497 3.268-9.432 5.975-14.24 9.025l1.072 1.689c4.655-2.953 9.787-5.785 14.344-9.096l-1.176-1.618zm-14.24 9.025c-5.156 3.27-10.623 6.079-16.25 8.448l.775 1.843c5.722-2.408 11.288-5.268 16.547-8.602l-1.071-1.69zm-16.25 8.448c-5.753 2.42-11.498 4.174-17.616 5.225l.339 1.971c6.284-1.08 12.175-2.88 18.052-5.353l-.776-1.843zM64.78 84.535c-6.821 1.172-13.566 2.834-20.31 3.26l.127 1.997c6.883-.436 13.894-2.147 20.522-3.286l-.339-1.97zm-20.31 3.26c-3.969.254-7.907-.124-11.696-1.156l-.526 1.93c4.01 1.092 8.17 1.49 12.35 1.223l-.128-1.996zM33.2 86.88c-2.35-2.23-4.437-4.914-6.264-7.445l-1.621 1.17c1.847 2.56 4.02 5.365 6.507 7.726l1.377-1.45zm-6.263-7.444c-.218-.303-.413-.603-.65-.95l-1.653 1.125c.206.302.442.663.68.993l1.623-1.168zm-.476-.384c.035-10.134 2.118-20.05 6.792-29.07l-1.775-.921c-4.841 9.344-6.98 19.58-7.017 29.984l2 .007zm6.793-29.071c1.268-2.449 2.604-4.907 4.216-7.033l-1.594-1.208c-1.724 2.275-3.127 4.867-4.398 7.321l1.776.92zm4.216-7.033c2.113-2.79 5.043-4.965 7.83-7.468l-1.336-1.488c-2.596 2.332-5.822 4.755-8.089 7.748l1.595 1.208zm7.83-7.468c1.147-1.029 2.29-2.132 3.433-3.238 1.147-1.11 2.293-2.224 3.466-3.296 2.35-2.149 4.754-4.083 7.341-5.401l-.908-1.782c-2.828 1.441-5.39 3.518-7.782 5.706-1.199 1.096-2.367 2.232-3.508 3.336-1.146 1.109-2.263 2.186-3.378 3.187l1.336 1.489zm14.24-11.935c2.73-1.392 5.497-2.86 8.275-4.31l-.926-1.772c-2.793 1.458-5.538 2.914-8.257 4.3l.908 1.782zm8.181-4.267a91.01 91.01 0 014.012-1.489l-.652-1.89a92.845 92.845 0 00-4.1 1.521l.74 1.858zm4.01-1.488c1.074-.369 2.33-1.19 3.134-2.262l-1.6-1.201c-.537.716-1.445 1.317-2.183 1.571l.65 1.892zm2.776-1.965c6.368-3.133 12.857-5.882 19.515-7.413l-.448-1.949c-6.879 1.581-13.528 4.408-19.95 7.567l.883 1.795zm19.137-7.4c4.53.705 8.885 2.067 13.542 3.386l.545-1.924c-4.581-1.298-9.096-2.71-13.78-3.438l-.307 1.977zm13.542 3.386c5.049 1.432 9.789 2.575 13.696 5.776l1.267-1.547c-4.3-3.523-9.516-4.763-14.418-6.153l-.545 1.925zm13.696 5.776c1.747 1.432 3.112 3.161 4.373 5.051a88.38 88.38 0 011.84 2.921c.606.993 1.224 2.009 1.88 3.006l1.671-1.099c-.634-.964-1.234-1.95-1.845-2.95a86.304 86.304 0 00-1.882-2.988c-1.314-1.97-2.807-3.88-4.77-5.488l-1.267 1.547zm8.093 10.978c3.18 4.838 3.284 10.768 1.189 16.196l1.866.72c2.272-5.888 2.226-12.522-1.384-18.014l-1.671 1.098zm7.383-24.806c-2.574-1.605-5.049-2.186-7.525-2.436-1.226-.123-2.463-.166-3.695-.21-1.242-.045-2.487-.091-3.78-.218l-.194 1.991c1.363.133 2.666.18 3.902.225 1.246.045 2.417.086 3.567.202 2.277.23 4.429.748 6.666 2.143l1.059-1.697zm-15-2.864c-7.166-.699-14.016-1.46-21.402-.283l.315 1.975c7.086-1.129 13.668-.406 20.894.298l.194-1.99zM99.957.612a64.02 64.02 0 00-3.153.59l.412 1.958a62.025 62.025 0 013.054-.572L99.957.612zm-2.814.578a37.26 37.26 0 00-3.431-.314l-.083 1.998c1.08.045 2.16.152 3.247.298l.267-1.982zm-3.43-.314A66.097 66.097 0 0072.745 3.39l.552 1.922a64.097 64.097 0 0120.331-2.437l.085-1.998zM72.745 3.39c-6.504 1.866-13.36 3.515-19.733 6.272l.794 1.836c6.217-2.69 12.87-4.286 19.491-6.186l-.552-1.922zM53.012 9.661c-2.986 1.292-5.747 2.978-8.488 4.45l.947 1.762c2.872-1.543 5.451-3.129 8.335-4.376l-.794-1.836zm-8.488 4.45c-1.58.85-3.203 1.598-4.863 2.379-1.65.776-3.327 1.58-4.955 2.523l1.003 1.73c1.547-.895 3.155-1.668 4.803-2.443 1.637-.77 3.32-1.546 4.96-2.427l-.948-1.761zm-9.817 4.902a85.093 85.093 0 00-15.485 11.49l1.366 1.462a83.094 83.094 0 0115.12-11.221l-1.001-1.73zm-15.485 11.49C13.588 35.77 9.696 42.071 5.526 48.29l1.661 1.114c4.232-6.31 7.978-12.368 13.402-17.438l-1.366-1.462zM5.526 48.29C1.953 53.616-.568 59.079.11 65.942l1.99-.197c-.611-6.19 1.624-11.178 5.086-16.343L5.525 48.29zM.11 65.942c.58 5.869 4.282 10.852 7.135 15.303l1.684-1.08c-2.99-4.664-6.308-9.153-6.83-14.42l-1.99.197zm7.135 15.303c1.682 2.624 3.923 4.306 6.305 5.65 1.187.668 2.42 1.26 3.637 1.836 1.227.581 2.433 1.147 3.612 1.78l.946-1.762c-1.233-.662-2.49-1.251-3.701-1.825-1.22-.578-2.395-1.142-3.511-1.772-2.224-1.253-4.163-2.738-5.604-4.987l-1.684 1.08zM20.8 90.51a34.282 34.282 0 007.173 2.865l.53-1.928a32.288 32.288 0 01-6.757-2.7L20.8 90.51zm6.765 2.641c.585.531 1.181 1.04 1.789 1.516l1.233-1.574a30.329 30.329 0 01-1.677-1.423l-1.345 1.481zm1.788 1.516c5.832 4.576 12.278 4.53 18.867 5.173l.195-1.99c-6.868-.67-12.568-.63-17.827-4.756l-1.235 1.573zm18.868 5.173c7.558.738 16.174-1.28 23.388-2.53l-.341-1.97c-7.42 1.285-15.645 3.213-22.853 2.51l-.194 1.99zm23.388-2.53c6.91-1.197 13.628-3.293 20.046-6.092l-.8-1.833c-6.285 2.741-12.85 4.787-19.587 5.955l.341 1.97zm20.046-6.092c5.841-2.548 11.918-5.114 17.309-8.84l-1.137-1.645c-5.199 3.592-11.078 6.082-16.971 8.652l.8 1.833zm17.309-8.84c5.757-3.975 10.162-8.924 14.417-14.288l-1.567-1.243c-4.216 5.316-8.475 10.08-13.987 13.886l1.137 1.646zm14.417-14.288c1.099-1.385 2.298-2.737 3.514-4.187 1.199-1.43 2.385-2.922 3.367-4.498l-1.697-1.058c-.906 1.453-2.019 2.86-3.202 4.27-1.166 1.39-2.431 2.82-3.549 4.23l1.567 1.243zm6.881-8.685c.995-1.596 1.779-3.352 2.482-5.095.722-1.786 1.323-3.463 2.026-5.118l-1.841-.782c-.699 1.648-1.367 3.488-2.039 5.152-.69 1.708-1.423 3.337-2.325 4.785l1.697 1.058zm4.508-10.214c.3-.706.598-1.415.889-2.125l-1.85-.758c-.287.7-.581 1.399-.88 2.102l1.841.781zm.758-1.897a53.284 53.284 0 005.874-9.61l-1.809-.855a51.291 51.291 0 01-5.653 9.25l1.588 1.215zm5.874-9.61c1.142-2.42 2.46-5.146 2.836-8.028l-1.983-.259c-.328 2.512-1.487 4.944-2.662 7.432l1.809.854zm2.836-8.028c.526-4.025.506-8.302.744-12.217l-1.997-.121c-.249 4.11-.215 8.135-.73 12.08l1.983.258zm.744-12.217c.174-2.88-.915-5.632-2.545-7.967-1.633-2.338-3.853-4.327-6.078-5.715L135.3 5.455c2.023 1.261 4.036 3.07 5.497 5.163 1.463 2.095 2.327 4.406 2.188 6.7l1.997.122z" fill="#FFCD1F"/></svg>